<svg width="131" height="145" viewBox="0 0 131 145" fill="none" xmlns="http://www.w3.org/2000/svg">
<g opacity="0.64" clip-path="url(#clip0_3_3740)">
<path d="M126.455 104C127.483 99.9209 128.517 95.7881 128.445 91.5788C128.372 87.3695 127.059 83.0187 124.014 80.1176C118.21 74.5874 108.769 76.1193 101.361 73.0752C96.0318 70.8864 91.8225 66.1376 90.2906 60.5805C88.7728 55.0743 89.7582 48.9706 87.4249 43.7575C84.7504 37.7826 78.1186 34.3195 71.5945 33.7617C65.0703 33.2038 58.5886 35.0812 52.4226 37.2644C46.4761 39.3613 40.1048 42.2567 37.5407 48.0036C35.652 52.2256 36.1928 57.3014 33.9374 61.3394C31.5772 65.5656 26.735 67.6766 22.1406 69.2001C17.5462 70.7235 12.6248 72.0912 9.27351 75.5827C5.85567 79.1421 4.68619 84.3963 5.05572 89.3163C5.42526 94.2364 7.15541 98.9355 8.86858 103.565L126.455 104Z" fill="#888888"/>
<path d="M119.131 97.2281C118.998 97.2481 118.862 97.2234 118.744 97.1579C118.626 97.0923 118.533 96.9895 118.48 96.8657C118.381 96.6127 118.371 96.3335 118.452 96.0742C118.545 95.7126 118.724 95.3786 118.973 95.1001C119.185 95.396 119.397 95.6155 119.518 95.9567C119.603 96.1577 119.636 96.3767 119.614 96.5938C119.579 96.8119 119.342 97.1771 119.131 97.2281Z" fill="white"/>
<path d="M12.2865 95.9057C12.164 95.9233 12.0391 95.9003 11.931 95.8402C11.8228 95.7801 11.7373 95.6863 11.6876 95.573C11.5956 95.3406 11.5866 95.0835 11.6621 94.8453C11.7481 94.5132 11.9122 94.2064 12.1406 93.9504C12.336 94.2223 12.5286 94.4233 12.6418 94.7376C12.7204 94.9224 12.7506 95.1241 12.7296 95.3238C12.6985 95.5206 12.4804 95.859 12.2865 95.9057Z" fill="white"/>
<path d="M108.5 91.4387C108.366 91.459 108.23 91.4344 108.112 91.3688C107.994 91.3032 107.901 91.2003 107.848 91.0762C107.748 90.824 107.738 90.545 107.82 90.2862C107.914 89.922 108.095 89.5861 108.348 89.3079C108.561 89.6024 108.773 89.8218 108.893 90.1644C108.978 90.3653 109.011 90.5846 108.988 90.8016C108.947 91.0196 108.711 91.3877 108.5 91.4387Z" fill="white"/>
<path d="M17.6398 75.1495C17.5064 75.1701 17.3699 75.1456 17.252 75.08C17.1341 75.0143 17.0413 74.9113 16.9885 74.7871C16.8892 74.5347 16.8793 74.2559 16.9602 73.997C17.0537 73.6355 17.2324 73.3015 17.4812 73.0229C17.6936 73.3189 17.906 73.5383 18.0263 73.8795C18.1111 74.0805 18.1442 74.2996 18.1226 74.5167C18.0872 74.7248 17.8507 75.0929 17.6398 75.1495Z" fill="white"/>
<path d="M117.901 87.4672C117.768 87.4875 117.631 87.4629 117.513 87.3973C117.395 87.3317 117.303 87.2288 117.25 87.1047C117.149 86.8526 117.139 86.5734 117.221 86.3147C117.314 85.9527 117.493 85.6186 117.742 85.3406C117.955 85.6351 118.167 85.8545 118.287 86.1901C118.373 86.391 118.405 86.6102 118.382 86.8272C118.348 87.0424 118.118 87.4148 117.901 87.4672Z" fill="white"/>
<path d="M91.4233 85.6011L115.994 97.0311C117.241 97.6094 118.315 98.5042 119.109 99.6264L121.363 102.811H37.8281L44.0861 87.2165C44.0861 87.2165 66.9972 86.9136 67.6032 86.9136C68.2092 86.9136 91.4233 85.6011 91.4233 85.6011Z" fill="#111111"/>
<path d="M86.9818 83.6841L91.4233 85.6011C91.4233 85.6011 83.4521 95.4256 66.8642 95.4256C50.2762 95.4256 40.2379 86.8131 40.2379 86.8131L44.0862 84.3226L86.9818 83.6841Z" fill="#111111"/>
<path d="M86.9819 83.6843C86.9819 83.6843 76.8388 91.9103 64.6796 91.613C52.5204 91.3156 43.1772 84.4403 43.1772 84.4403L55.9962 79.1422V72.8163L77.3414 70.626V79.0913L86.9819 83.6843Z" fill="white"/>
<path d="M77.3414 70.626V73.3486C76.9179 73.812 76.4713 74.2539 76.0034 74.6724C73.0199 77.3128 69.2081 78.8286 65.2261 78.9582C63.8742 78.9945 62.5228 78.8685 61.2009 78.583C59.567 78.229 57.5777 77.616 56.0005 76.6546V72.8163L77.3414 70.626Z" fill="#111111"/>
<path d="M81.5535 51.7498C81.6767 49.1404 82.2855 46.6443 82.7046 44.0661C83.1237 41.4878 83.3885 38.8388 82.9 36.2719C82.4115 33.705 81.0807 31.2046 78.8819 29.7944C77.4745 28.8925 75.7967 28.4834 74.1303 28.3673C72.4639 28.2512 70.7889 28.414 69.1253 28.5768C69.3193 27.5744 69.4637 26.5111 69.1961 25.5243C69.1452 25.3021 69.0461 25.0937 68.9059 24.914C68.8346 24.8253 68.7443 24.7538 68.6416 24.7047C68.5389 24.6557 68.4264 24.6305 68.3126 24.6309C67.9374 24.6479 67.6727 25.0018 67.507 25.3388C67.1218 26.1297 66.963 27.0117 67.0483 27.8873C66.9492 27.4045 66.8911 26.7716 66.6646 26.3299C66.4381 25.8881 66.0685 25.5044 65.5942 25.3728C65.379 25.3133 65.1001 25.336 64.9982 25.5342C64.9104 25.7069 64.9981 25.9122 65.1001 26.0821C65.4333 26.6852 65.7665 27.2889 66.0997 27.893C59.5978 25.6021 52.5033 25.6332 46.0217 27.9807C44.2646 28.6207 42.4283 29.5622 41.675 31.274C40.7958 33.2717 41.685 35.5541 42.4467 37.5985C44.9329 44.2728 46.1279 51.5445 50.0582 57.4882C50.1814 56.088 53.5907 58.7851 54.7843 58.0432C60.0413 54.7769 64.6612 50.4317 70.4137 52.7112C72.3959 53.4941 74.2931 54.6084 76.4098 54.8179C78.5265 55.0275 81.4544 53.875 81.5535 51.7498Z" fill="#111111"/>
<path d="M84.3045 53.2719C84.1346 54.171 83.5201 54.9298 82.8065 55.5033C81.79 56.3188 80.5964 56.7492 79.3038 56.9021V59.0259L79.3236 64.6411C79.3341 67.1902 78.4057 69.6541 76.7156 71.5625C75.0255 73.4709 72.692 74.6903 70.1603 74.988L63.2312 75.8078C60.6987 76.1093 58.144 75.4675 56.0547 74.005C53.9654 72.5425 52.4879 70.3618 51.9045 67.8791L50.5877 62.312L49.0629 55.8615C51.1682 55.8615 53.1688 55.0629 55.0094 53.8651C55.1637 53.7632 55.318 53.6598 55.4695 53.5522C57.2294 52.319 58.8152 50.7347 60.1545 49.173C61.4939 47.6114 62.6464 45.7835 63.1519 43.7674C63.6573 41.7512 63.6927 39.6119 62.577 37.8577C65.3323 38.5387 67.708 40.2391 70.0059 41.9013C72.8235 43.9387 75.5419 46.0893 78.2815 48.2287C78.6482 49.2991 78.9002 50.4459 78.8634 51.5757L80.8654 51.0165C81.6555 50.7956 82.5305 50.579 83.2724 50.9372C84.0992 51.3336 84.4744 52.3728 84.3045 53.2719Z" fill="white"/>
<path d="M64.1018 61.5816C63.687 61.6693 62.9861 61.8109 62.7412 61.3409C62.5911 61.0577 62.6945 60.6825 62.7709 60.388C62.8587 60.0539 62.9479 59.7212 63.0215 59.3842C63.4921 57.2092 63.5402 54.964 63.1631 52.7708C63.1178 52.5046 62.6987 52.5528 62.7384 52.8204C63.1275 55.0846 63.0533 57.4043 62.5203 59.639C62.3787 60.262 62.0135 61.0549 62.4226 61.6453C62.8021 62.196 63.5695 62.121 64.14 62.0007C64.4147 61.9454 64.368 61.5263 64.1018 61.5816Z" fill="#111111"/>
<path d="M65.9666 64.9682C65.492 64.8908 65.0062 64.9195 64.544 65.0522C64.0818 65.1849 63.6547 65.4183 63.2935 65.7356C63.0924 65.9154 63.3444 66.2538 63.5483 66.0726C63.8642 65.7886 64.2396 65.5791 64.647 65.4593C65.0545 65.3394 65.4836 65.3124 65.9029 65.3802C65.9532 65.3802 66.0018 65.3622 66.04 65.3294C66.0782 65.2966 66.1035 65.2513 66.1112 65.2015C66.1188 65.1518 66.1085 65.1009 66.082 65.0581C66.0555 65.0154 66.0145 64.9835 65.9666 64.9682Z" fill="#111111"/>
<path d="M72.0405 54.0918C71.6554 54.4925 71.2462 54.9243 70.7139 55.1197C70.2891 55.2782 69.7794 55.2613 69.4326 54.937C69.2329 54.753 68.9724 55.0857 69.1706 55.2683C69.6067 55.6704 70.2481 55.7115 70.7918 55.5388C71.4317 55.3363 71.9244 54.8308 72.3718 54.3537C72.5601 54.1569 72.2274 53.8978 72.0405 54.0918Z" fill="#111111"/>
<path d="M72.5785 49.9773C72.0286 50.7933 71.2052 51.3859 70.2569 51.6484C69.3085 51.9108 68.2976 51.8258 67.4064 51.4087C67.3556 51.3887 67.299 51.3892 67.2485 51.4101C67.198 51.4309 67.1576 51.4706 67.1357 51.5207C67.1139 51.5708 67.1124 51.6274 67.1314 51.6786C67.1505 51.7298 67.1887 51.7716 67.238 51.7952C68.2149 52.2482 69.3207 52.3403 70.3591 52.0552C71.3975 51.7701 72.3012 51.1262 72.9098 50.2378C73.0641 50.0155 72.7328 49.7522 72.5785 49.9773Z" fill="#111111"/>
<path d="M59.6831 52.9506C59.1578 53.9417 58.011 54.1753 56.9803 54.1612C56.3143 54.1524 55.6527 54.0529 55.0137 53.8653C55.168 53.7633 55.3223 53.66 55.4738 53.5524C55.9095 53.6568 56.3543 53.7189 56.8019 53.7378C57.6868 53.7761 58.8294 53.6586 59.2966 52.7807C59.4226 52.5429 59.8105 52.7099 59.6831 52.9506Z" fill="#111111"/>
<path d="M82.5247 52.8175C81.9611 52.8578 81.4135 53.0228 80.9216 53.3008C80.4296 53.5787 80.0056 53.9625 79.6803 54.4245C79.5245 54.6467 79.8558 54.9087 80.0116 54.685C80.3039 54.2666 80.6865 53.9193 81.131 53.6686C81.5755 53.4179 82.0707 53.2703 82.5799 53.2366C82.8461 53.2196 82.7951 52.7991 82.5247 52.8175Z" fill="#888888"/>
<path d="M79.3094 59.0203L79.3292 64.6355C79.3359 66.0241 79.0629 67.3998 78.5264 68.6805C76.0431 68.648 73.9235 66.8598 73.6347 64.426C73.3204 61.7684 75.3097 59.3488 78.0776 59.0203C78.4868 58.9714 78.9003 58.9714 79.3094 59.0203Z" fill="#111111"/>
<path d="M56.8259 66.4138C57.0935 68.6721 55.6932 70.759 53.5695 71.5349C52.782 70.4369 52.2182 69.1948 51.9101 67.8792L50.5934 62.3121C50.807 62.2603 51.0235 62.2215 51.2418 62.196C54.0126 61.8676 56.5116 63.7563 56.8259 66.4138Z" fill="#111111"/>
<path d="M61.0423 56.4788C60.8058 56.8752 60.3853 57.0593 59.9776 57.225C56.4588 58.6896 52.7662 59.6951 48.9907 60.2166C50.3771 63.91 51.1097 67.8166 51.1555 71.7614C51.1781 73.8058 50.9714 75.9735 49.7595 77.6201C49.2993 78.2445 48.7118 78.7684 48.2728 79.4069C47.9387 79.8939 47.6938 80.4872 47.7065 81.0648C47.7195 81.669 47.6582 82.2724 47.5239 82.8615L47.4304 83.2863L46.2071 88.8321L43.1234 102.811H21.1241L33.0413 82.9366L35.9989 78.0151L36.5554 77.0878C36.9603 73.8837 35.7229 70.7363 35.0149 67.5861C34.2249 64.0677 33.5609 60.4248 34.6242 56.98C35.0758 55.5217 36.0074 54.2687 36.9362 53.0567C40.6174 48.2485 44.4803 43.5876 48.5249 39.0739C48.7471 38.8276 48.9822 38.5713 49.3347 38.5246C49.4087 38.5135 49.4842 38.5182 49.5562 38.5385C49.6282 38.5587 49.6951 38.594 49.7524 38.6421C50.0356 38.8941 49.9025 39.2962 49.7524 39.6077C47.5961 44.0478 44.2476 47.8195 42.6406 52.4918L53.4279 38.8913C53.636 38.6293 53.9362 38.3363 54.2576 38.4878C54.321 38.5197 54.3766 38.5654 54.4201 38.6215C54.4637 38.6775 54.4943 38.7426 54.5096 38.812C54.5804 39.0952 54.4615 39.3698 54.3454 39.6261C52.1706 44.4145 49.9563 49.3387 47.7504 54.1144C49.1563 53.2748 50.2125 51.9764 51.29 50.7475C53.7413 47.9627 56.4537 45.4191 59.39 43.1515C59.6264 42.9689 59.8983 42.7763 60.214 42.8953C60.3393 42.9468 60.4465 43.0342 60.5221 43.1466C60.5977 43.259 60.6383 43.3913 60.6388 43.5267C60.6572 44.0024 60.3485 44.3762 60.0554 44.7231C56.7594 48.5997 53.4307 52.5612 50.1347 56.4378C53.3128 55.5127 56.619 55.105 59.9266 55.23C60.4066 55.2484 60.9757 55.3334 61.1386 55.8204C61.1706 55.9307 61.1786 56.0465 61.162 56.1601C61.1454 56.2737 61.1046 56.3824 61.0423 56.4788V56.4788Z" fill="white"/>
<path d="M47.4346 83.2863L46.2114 88.8321C41.0733 88.3578 36.5638 86.0005 33.0441 82.9408L35.9989 78.0151C38.1043 79.7467 43.2905 82.4354 47.4346 83.2863Z" fill="#111111"/>
<path d="M37.3382 76.1406L31.7726 85.1255C31.6508 85.3208 31.3195 85.3251 31.0646 85.134L28.9296 83.5355C28.2924 83.0583 28.0418 82.332 28.3448 81.8365L32.8755 74.5279C33.1785 74.038 33.9402 73.9389 34.6524 74.2971L37.0338 75.4963C37.3156 75.6436 37.46 75.9409 37.3382 76.1406Z" fill="#111111"/>
<path d="M33.4716 79.3771C33.4716 79.2441 33.4322 79.1141 33.3583 79.0035C33.2844 78.8929 33.1794 78.8067 33.0565 78.7558C32.9336 78.7049 32.7984 78.6916 32.6679 78.7175C32.5375 78.7435 32.4176 78.8075 32.3236 78.9016C32.2295 78.9956 32.1655 79.1155 32.1395 79.2459C32.1136 79.3764 32.1269 79.5116 32.1778 79.6345C32.2287 79.7574 32.3149 79.8624 32.4255 79.9363C32.5361 80.0102 32.6661 80.0496 32.7991 80.0496C32.9775 80.0496 33.1485 79.9788 33.2747 79.8527C33.4008 79.7265 33.4716 79.5555 33.4716 79.3771V79.3771Z" fill="#888888"/>
<path d="M55.6139 56.0356C56.0811 56.3358 56.5795 56.6586 57.1444 56.7251C57.5961 56.7789 58.0845 56.6402 58.3465 56.248C58.498 56.0229 58.8279 56.2848 58.6778 56.5099C58.3479 57.0026 57.7348 57.1909 57.1657 57.1513C56.4946 57.1046 55.9013 56.7195 55.352 56.3669C55.1226 56.2197 55.386 55.894 55.6139 56.0356Z" fill="#111111"/>
<path d="M32.1946 29.8654C32.438 29.1994 32.7468 28.5592 33.1163 27.954C33.2579 27.7176 33.4476 27.4684 33.7336 27.4132C34.0196 27.3579 34.2391 27.5123 34.2334 27.811C34.2277 28.1098 34.0833 28.4411 33.9743 28.7256C33.8575 29.027 33.7256 29.3224 33.5793 29.6105C33.1593 30.4354 32.6265 31.1979 31.9964 31.8759C31.9879 31.8405 31.978 31.8051 31.9709 31.7683C31.8477 31.1297 31.9794 30.4728 32.1946 29.8654ZM35.628 31.6154C35.744 31.3425 35.9185 31.0985 36.1391 30.9004C36.2963 30.7588 36.6785 30.5408 36.8258 30.8083C36.9447 31.0264 36.7522 31.3492 36.6361 31.5262C36.4502 31.8001 36.2448 32.0604 36.0216 32.3049C35.8672 32.481 35.7017 32.647 35.5261 32.8018C35.4258 32.4061 35.4617 31.9882 35.628 31.6154V31.6154Z" fill="#111111"/>
<path d="M126.455 102.811V103.553H8.86865V102.811" fill="#111111"/>
<path d="M67.8312 20.879C69.1785 20.879 70.2707 19.7868 70.2707 18.4395C70.2707 17.0922 69.1785 16 67.8312 16C66.4839 16 65.3917 17.0922 65.3917 18.4395C65.3917 19.7868 66.4839 20.879 67.8312 20.879Z" fill="#888888"/>
<path d="M57.4559 22.0258C57.4559 22.1938 57.5058 22.358 57.5991 22.4977C57.6924 22.6374 57.8251 22.7463 57.9803 22.8106C58.1356 22.8749 58.3064 22.8917 58.4712 22.859C58.636 22.8262 58.7873 22.7453 58.9061 22.6265C59.0249 22.5077 59.1058 22.3563 59.1386 22.1915C59.1714 22.0267 59.1546 21.8559 59.0903 21.7007C59.026 21.5455 58.9171 21.4128 58.7774 21.3194C58.6377 21.2261 58.4735 21.1763 58.3054 21.1763C58.0801 21.1763 57.8641 21.2658 57.7047 21.4251C57.5454 21.5844 57.4559 21.8005 57.4559 22.0258V22.0258Z" fill="#111111"/>
<path d="M2.55115 69.6771C2.55115 69.8452 2.60097 70.0094 2.69431 70.1491C2.78766 70.2888 2.92033 70.3977 3.07556 70.462C3.23079 70.5263 3.40159 70.5431 3.56638 70.5103C3.73117 70.4775 3.88253 70.3966 4.00134 70.2778C4.12014 70.159 4.20105 70.0077 4.23383 69.8429C4.26661 69.6781 4.24978 69.5073 4.18549 69.352C4.12119 69.1968 4.01231 69.0641 3.87261 68.9708C3.73291 68.8775 3.56867 68.8276 3.40065 68.8276C3.17535 68.8276 2.95927 68.9171 2.79996 69.0764C2.64065 69.2358 2.55115 69.4518 2.55115 69.6771V69.6771Z" fill="#111111"/>
<path d="M19.1122 96.8882C18.9897 96.9058 18.8649 96.8827 18.7567 96.8227C18.6486 96.7626 18.5631 96.6687 18.5133 96.5555C18.4216 96.3235 18.4121 96.0672 18.4864 95.8291C18.5717 95.4964 18.7364 95.1894 18.9664 94.9343C19.1604 95.2048 19.3543 95.4072 19.4662 95.7215C19.5446 95.9058 19.5753 96.107 19.5554 96.3063C19.5228 96.5045 19.3062 96.8429 19.1122 96.8882Z" fill="white"/>
<path d="M79.73 59.9123C79.7101 59.101 79.6691 58.2912 79.611 57.4827C79.6103 57.4048 79.579 57.3304 79.524 57.2753C79.4689 57.2202 79.3944 57.189 79.3165 57.1882C79.2951 57.1885 79.2738 57.1909 79.2528 57.1953H79.2387C79.1767 57.2125 79.122 57.2495 79.0829 57.3006C79.0438 57.3517 79.0225 57.4141 79.022 57.4785C79.1951 60.3245 79.1506 63.1796 78.8889 66.0188C78.855 66.4096 78.8153 66.8018 78.7799 67.194C78.7559 67.3998 78.7431 67.6068 78.7417 67.8141C78.7594 68.0203 78.7665 68.2273 78.7629 68.4342C78.7604 68.4528 78.7616 68.4717 78.7664 68.4899C78.7712 68.508 78.7795 68.525 78.7909 68.5399C78.8023 68.5549 78.8165 68.5674 78.8327 68.5768C78.8489 68.5863 78.8668 68.5924 78.8854 68.5949C78.904 68.5974 78.9229 68.5963 78.941 68.5915C78.9592 68.5867 78.9762 68.5783 78.9911 68.567C79.006 68.5556 79.0186 68.5414 79.028 68.5252C79.0374 68.509 79.0436 68.4911 79.0461 68.4725C79.0839 68.3024 79.137 68.1361 79.2047 67.9755C79.2652 67.8027 79.306 67.6237 79.3264 67.4417C79.3817 67.0835 79.4298 66.7253 79.468 66.3643C79.5473 65.6488 79.6096 64.9329 79.6549 64.2165C79.7446 62.7855 79.7696 61.3508 79.73 59.9123Z" fill="#111111"/>
<path d="M43.6685 44.2926C43.466 44.4837 43.2565 44.6706 43.071 44.8816C42.8855 45.0926 42.7071 45.3063 42.5259 45.5215C42.1621 45.9463 41.818 46.3951 41.4683 46.8354L39.4153 49.4278C38.1411 51.0334 36.7989 52.6149 35.761 54.3833C34.7514 56.1238 34.1366 58.0649 33.9601 60.0693C33.7675 62.1095 33.9686 64.1752 34.3849 66.1715C34.6298 67.3424 34.9512 68.4964 35.3009 69.6389C35.6377 70.8092 36.0433 71.9585 36.5157 73.0808C36.612 73.2989 36.9404 73.1403 36.8881 72.9251C36.6375 71.8944 36.2665 70.8934 35.9536 69.881C35.6407 68.8687 35.3476 67.8465 35.1041 66.8129C34.6482 64.852 34.3778 62.8486 34.4755 60.8268C34.548 58.8511 35.0597 56.9165 35.9734 55.1634C36.9107 53.412 38.1935 51.8758 39.4238 50.3255L41.6977 47.4598C42.0757 46.9813 42.4608 46.507 42.8303 46.0199C43.0144 45.7792 43.1942 45.5343 43.3712 45.2879C43.5578 45.0213 43.7307 44.7453 43.8894 44.4611C43.9038 44.4317 43.9076 44.3981 43.9001 44.3662C43.8926 44.3343 43.8742 44.306 43.8482 44.2861C43.8221 44.2662 43.7899 44.256 43.7572 44.2572C43.7244 44.2584 43.6931 44.2709 43.6685 44.2926Z" fill="#111111"/>
<path d="M51.3324 71.2178C51.2999 70.3159 51.2432 69.3418 50.8921 68.5022C50.8383 68.3748 50.6217 68.372 50.6288 68.5376C50.667 69.322 50.8157 70.095 50.827 70.8808C50.8428 71.6644 50.7955 72.448 50.6854 73.224C50.4659 74.7668 49.9787 76.2593 49.2455 77.6344C49.0406 78.0145 48.8166 78.3841 48.5744 78.7416C48.4488 78.9303 48.3238 79.1168 48.1992 79.3008C48.0797 79.4896 47.9723 79.6859 47.8778 79.8884C47.8155 80.013 47.9557 80.2041 48.0902 80.1008C48.2564 79.988 48.4106 79.8585 48.5503 79.7142C48.6898 79.5553 48.8211 79.3894 48.9439 79.2173C49.1699 78.8941 49.3784 78.559 49.5683 78.2135C49.9657 77.5058 50.3006 76.7649 50.5693 75.9991C51.1195 74.4668 51.3783 72.8452 51.3324 71.2178V71.2178Z" fill="#111111"/>
<path d="M30.4771 86.5583C30.2987 86.8089 30.0736 87.027 29.8966 87.2832C29.7196 87.5395 29.5709 87.8028 29.4138 88.0662C29.108 88.5825 28.8012 89.0993 28.4935 89.6165C27.8677 90.6713 27.249 91.7289 26.6218 92.7837C25.3815 94.8707 24.1407 96.9576 22.8995 99.0446C22.5498 99.6322 22.2001 100.22 21.856 100.812L21.3407 101.698C21.1553 101.99 21.0025 102.302 20.8848 102.628C20.8762 102.664 20.8793 102.701 20.8937 102.735C20.9081 102.769 20.933 102.798 20.9648 102.816C20.9966 102.835 21.0335 102.843 21.0701 102.839C21.1067 102.834 21.141 102.819 21.1679 102.794C21.5842 102.369 21.8631 101.793 22.1732 101.283C22.4833 100.773 22.7947 100.255 23.1034 99.7383L24.985 96.5782C26.2282 94.4922 27.4736 92.4076 28.7214 90.3244L29.7692 88.5617C29.9447 88.2686 30.1231 87.977 30.2874 87.6768C30.4516 87.3767 30.5578 87.017 30.7121 86.6985C30.7207 86.6685 30.7191 86.6365 30.7076 86.6074C30.6961 86.5784 30.6753 86.554 30.6485 86.538C30.6217 86.5221 30.5903 86.5154 30.5593 86.519C30.5283 86.5227 30.4994 86.5365 30.4771 86.5583V86.5583Z" fill="#111111"/>
</g>
<path d="M92.6372 112.306H39.8252C38.2077 112.306 36.8965 113.113 36.8965 114.109V122.96C36.8965 123.956 38.2077 124.764 39.8252 124.764H92.6372C94.2547 124.764 95.5659 123.956 95.5659 122.96V114.109C95.5659 113.113 94.2547 112.306 92.6372 112.306Z" fill="#F9F9F9"/>
<path d="M45.797 123.595L39.8223 128.328L39.9955 123.595H45.797Z" fill="#F9F9F9"/>
<path d="M7.40465 114.727V122H6.07653L2.91246 117.423H2.8592V122H1.32156V114.727H2.67099L5.81019 119.301H5.87411V114.727H7.40465ZM16.3583 118.364C16.3583 119.157 16.208 119.831 15.9073 120.388C15.609 120.944 15.2018 121.369 14.6857 121.663C14.172 121.954 13.5943 122.099 12.9528 122.099C12.3065 122.099 11.7264 121.953 11.2127 121.659C10.699 121.366 10.293 120.941 9.99467 120.384C9.69638 119.828 9.54723 119.154 9.54723 118.364C9.54723 117.571 9.69638 116.896 9.99467 116.339C10.293 115.783 10.699 115.359 11.2127 115.068C11.7264 114.775 12.3065 114.628 12.9528 114.628C13.5943 114.628 14.172 114.775 14.6857 115.068C15.2018 115.359 15.609 115.783 15.9073 116.339C16.208 116.896 16.3583 117.571 16.3583 118.364ZM14.7994 118.364C14.7994 117.85 14.7224 117.417 14.5685 117.064C14.417 116.711 14.2028 116.444 13.9258 116.261C13.6488 116.079 13.3245 115.988 12.9528 115.988C12.5811 115.988 12.2567 116.079 11.9798 116.261C11.7028 116.444 11.4873 116.711 11.3335 117.064C11.1819 117.417 11.1062 117.85 11.1062 118.364C11.1062 118.877 11.1819 119.311 11.3335 119.663C11.4873 120.016 11.7028 120.284 11.9798 120.466C12.2567 120.648 12.5811 120.739 12.9528 120.739C13.3245 120.739 13.6488 120.648 13.9258 120.466C14.2028 120.284 14.417 120.016 14.5685 119.663C14.7224 119.311 14.7994 118.877 14.7994 118.364ZM21.5348 115.995V114.727H27.5078V115.995H25.2812V122H23.7614V115.995H21.5348ZM31.0291 114.727V122H29.4915V114.727H31.0291ZM39.7111 117.273H38.1557C38.1273 117.072 38.0693 116.893 37.9817 116.737C37.8941 116.579 37.7817 116.444 37.6444 116.332C37.507 116.221 37.3484 116.136 37.1685 116.077C36.9909 116.018 36.798 115.988 36.5897 115.988C36.2132 115.988 35.8854 116.081 35.606 116.268C35.3266 116.453 35.11 116.723 34.9561 117.078C34.8023 117.431 34.7253 117.859 34.7253 118.364C34.7253 118.882 34.8023 119.318 34.9561 119.67C35.1124 120.023 35.3302 120.29 35.6096 120.469C35.8889 120.649 36.2121 120.739 36.579 120.739C36.785 120.739 36.9756 120.712 37.1507 120.658C37.3283 120.603 37.4857 120.524 37.623 120.42C37.7604 120.313 37.874 120.184 37.964 120.033C38.0563 119.881 38.1202 119.708 38.1557 119.514L39.7111 119.521C39.6709 119.855 39.5703 120.177 39.4093 120.487C39.2507 120.795 39.0364 121.071 38.7665 121.315C38.499 121.556 38.1794 121.748 37.8077 121.89C37.4384 122.03 37.0205 122.099 36.5542 122.099C35.9055 122.099 35.3255 121.953 34.8141 121.659C34.3051 121.366 33.9026 120.941 33.6067 120.384C33.3132 119.828 33.1664 119.154 33.1664 118.364C33.1664 117.571 33.3155 116.896 33.6138 116.339C33.9121 115.783 34.3169 115.359 34.8283 115.068C35.3397 114.775 35.915 114.628 36.5542 114.628C36.9756 114.628 37.3662 114.687 37.726 114.805C38.0882 114.924 38.409 115.097 38.6884 115.324C38.9677 115.549 39.195 115.825 39.3702 116.151C39.5478 116.478 39.6614 116.852 39.7111 117.273ZM41.8137 122V114.727H43.3514V117.934H43.4473L46.0645 114.727H47.9075L45.2086 117.984L47.9395 122H46.1L44.1078 119.01L43.3514 119.933V122H41.8137ZM49.7083 122V114.727H54.6088V115.995H51.2459V117.728H54.3567V118.996H51.2459V120.732H54.623V122H49.7083ZM56.5543 115.995V114.727H62.5273V115.995H60.3008V122H58.7809V115.995H56.5543ZM69.079 122H67.4313L69.9419 114.727H71.9235L74.4306 122H72.7828L70.9611 116.389H70.9043L69.079 122ZM68.976 119.141H72.8681V120.342H68.976V119.141ZM76.7116 114.727L78.4695 120.253H78.5369L80.2983 114.727H82.0028L79.4957 122H77.5142L75.0036 114.727H76.7116ZM84.165 122H82.5172L85.0279 114.727H87.0094L89.5165 122H87.8688L86.0471 116.389H85.9902L84.165 122ZM84.062 119.141H87.954V120.342H84.062V119.141ZM92.9295 114.727V122H91.3919V114.727H92.9295ZM95.1946 122V114.727H96.7322V120.732H99.8501V122H95.1946ZM103.308 122H101.66L104.17 114.727H106.152L108.659 122H107.011L105.19 116.389H105.133L103.308 122ZM103.205 119.141H107.097V120.342H103.205V119.141ZM110.534 122V114.727H113.446C113.981 114.727 114.428 114.807 114.785 114.965C115.143 115.124 115.411 115.344 115.591 115.626C115.771 115.905 115.861 116.227 115.861 116.592C115.861 116.876 115.804 117.125 115.691 117.341C115.577 117.554 115.421 117.729 115.222 117.866C115.025 118.001 114.801 118.097 114.547 118.154V118.225C114.824 118.237 115.083 118.315 115.325 118.46C115.569 118.604 115.766 118.806 115.918 119.067C116.069 119.325 116.145 119.633 116.145 119.99C116.145 120.376 116.049 120.72 115.858 121.023C115.668 121.324 115.388 121.562 115.016 121.737C114.644 121.912 114.186 122 113.642 122H110.534ZM112.072 120.743H113.326C113.754 120.743 114.067 120.661 114.263 120.498C114.46 120.332 114.558 120.112 114.558 119.837C114.558 119.636 114.509 119.459 114.412 119.305C114.315 119.151 114.177 119.03 113.997 118.942C113.819 118.855 113.607 118.811 113.361 118.811H112.072V120.743ZM112.072 117.771H113.212C113.423 117.771 113.61 117.734 113.773 117.661C113.939 117.585 114.069 117.478 114.164 117.341C114.261 117.204 114.309 117.039 114.309 116.847C114.309 116.585 114.216 116.373 114.029 116.212C113.844 116.051 113.581 115.97 113.24 115.97H112.072V117.771ZM118.146 122V114.727H119.683V120.732H122.801V122H118.146ZM124.82 122V114.727H129.72V115.995H126.357V117.728H129.468V118.996H126.357V120.732H129.734V122H124.82Z" fill="black" fill-opacity="0.48"/>
<defs>
<clipPath id="clip0_3_3740">
<rect width="125.898" height="88" fill="white" transform="translate(2.55115 16)"/>
</clipPath>
</defs>
</svg>
